M48
; DRILL file {KiCad 5.1.2} date Thu 11 Jun 2020 23:37:08
; FORMAT={-:-/ absolute / metric / decimal}
; #@! TF.CreationDate,2020-06-11T23:37:08+09:30
; #@! TF.GenerationSoftware,Kicad,Pcbnew,5.1.2
; #@! TF.FileFunction,Plated,1,4,PTH
FMAT,2
METRIC
T1C0.400
T2C0.600
T3C0.991
T4C1.000
T5C1.016
T6C2.300
T7C3.200
%
G90
G05
T1
X41.8Y-88.6
X44.4Y-74.8
X45.75Y-120.5
X45.75Y-121.75
X45.75Y-123.0
X45.75Y-134.5
X48.25Y-135.25
X49.4Y-87.2
X49.9Y-111.5
X52.0Y-113.0
X54.0Y-113.0
X55.0Y-103.0
X55.0Y-105.0
X55.8Y-111.5
X56.5Y-59.25
X56.5Y-73.5
X56.5Y-75.75
X56.5Y-85.75
X56.6Y-49.7
X56.7Y-47.0
X57.0Y-145.0
X61.25Y-120.5
X61.25Y-121.75
X61.25Y-123.0
X61.25Y-125.5
X61.25Y-126.75
X61.25Y-128.0
X61.25Y-130.5
X61.25Y-132.75
X62.0Y-41.25
X62.0Y-42.75
X62.0Y-67.75
X62.0Y-69.25
X62.25Y-130.5
X65.0Y-145.0
X65.4Y-61.8
X65.8Y-92.0
X65.8Y-94.2
X66.25Y-120.0
X67.25Y-104.75
X68.4Y-105.6
X68.75Y-120.0
X69.5Y-95.6
X69.8Y-75.0
X70.75Y-106.5
X71.5Y-86.5
X71.5Y-91.5
X71.8Y-98.5
X72.5Y-132.25
X73.28Y-100.0
X73.4Y-98.7
X73.75Y-91.5
X74.0Y-127.5
X74.0Y-129.0
X76.2Y-92.0
X76.2Y-95.8
X77.25Y-133.75
X78.25Y-134.5
X78.9Y-111.0
X79.5Y-138.0
X80.25Y-120.75
X81.0Y-47.1
X81.0Y-49.7
X81.0Y-59.25
X81.0Y-73.5
X81.0Y-76.0
X81.0Y-85.75
X81.0Y-138.25
X81.2Y-92.0
X81.25Y-137.0
X81.25Y-145.75
X81.75Y-135.25
X82.75Y-136.0
X82.8Y-137.6
X86.5Y-41.25
X86.5Y-42.75
X86.75Y-67.75
X86.75Y-69.25
X89.6Y-95.8
X90.0Y-61.8
X90.6Y-116.8
X92.75Y-137.25
X94.0Y-76.8
X94.6Y-97.0
X96.4Y-92.0
X97.75Y-119.0
X99.5Y-127.75
X101.0Y-127.75
X101.6Y-97.0
X101.6Y-103.0
X101.6Y-110.6
X102.25Y-140.0
X102.75Y-119.75
X103.0Y-122.5
X103.0Y-138.0
X103.5Y-121.5
X103.75Y-139.0
X104.25Y-112.0
X104.5Y-122.0
X104.75Y-124.5
X105.25Y-141.0
X105.5Y-47.0
X105.5Y-49.75
X105.5Y-59.25
X105.5Y-73.5
X105.5Y-75.75
X105.5Y-85.75
X106.475Y-109.5
X107.0Y-110.75
X108.75Y-123.5
X109.0Y-113.5
X109.0Y-130.75
X109.5Y-109.0
X110.5Y-113.5
X110.5Y-130.75
X111.0Y-41.75
X111.0Y-43.25
X111.0Y-125.75
X111.25Y-67.75
X111.25Y-69.25
X113.8Y-96.2
X113.8Y-103.0
X114.0Y-144.25
X114.5Y-125.0
X114.5Y-145.25
X114.6Y-61.8
X114.6Y-88.0
X115.0Y-111.75
X115.25Y-125.8
X115.75Y-107.25
X115.75Y-146.0
X116.0Y-127.5
X116.25Y-112.5
X116.5Y-119.75
X116.75Y-143.5
X117.0Y-140.5
X117.25Y-109.5
X117.75Y-114.881
X117.9Y-138.25
X118.0Y-121.475
X118.0Y-139.75
X118.2Y-76.2
X118.25Y-142.75
X118.25Y-111.0
X118.5Y-113.75
X119.0Y-122.0
X119.25Y-110.25
X120.4Y-88.0
X120.7Y-98.1
X122.5Y-121.0
X123.0Y-113.5
X123.0Y-130.75
X124.5Y-113.5
X124.5Y-130.75
X124.75Y-126.25
X128.25Y-147.25
X128.5Y-125.0
X129.25Y-108.0
X129.737Y-124.987
X130.0Y-47.0
X130.0Y-49.75
X130.0Y-59.25
X130.0Y-73.5
X130.0Y-76.0
X130.0Y-85.75
X130.0Y-110.5
X130.25Y-120.0
X130.25Y-126.25
X130.5Y-145.0
X130.75Y-111.5
X131.0Y-108.5
X131.0Y-146.0
X131.1Y-106.9
X131.5Y-95.5
X131.5Y-97.5
X131.75Y-127.0
X131.75Y-128.5
X131.75Y-148.75
X133.0Y-143.5
X135.5Y-41.75
X135.5Y-43.25
X135.75Y-67.75
X135.75Y-69.25
X135.75Y-130.75
X136.5Y-102.25
X136.75Y-136.5
X137.0Y-131.0
X137.2Y-85.4
X137.5Y-103.0
X138.25Y-136.5
X138.75Y-102.25
X139.0Y-61.8
X139.0Y-130.25
X140.0Y-136.25
X140.5Y-130.0
X140.75Y-102.5
X141.5Y-136.25
X143.184Y-95.0
X144.0Y-96.0
X144.5Y-127.7
X144.5Y-134.0
X145.0Y-97.0
X146.0Y-98.0
X146.25Y-136.75
X147.25Y-137.75
X149.0Y-137.75
X149.0Y-87.0
X150.0Y-87.75
X150.0Y-96.0
X151.0Y-88.75
X151.0Y-90.25
X151.0Y-91.75
X152.0Y-93.0
X152.0Y-127.25
X152.25Y-90.25
X153.0Y-80.0
X153.5Y-93.0
X156.5Y-127.25
X156.6Y-116.0
X156.6Y-121.8
X156.75Y-68.25
X156.75Y-69.75
X156.75Y-110.25
X158.4Y-82.4
X158.5Y-52.75
X158.75Y-138.0
X160.25Y-36.0
X160.4Y-82.4
X160.5Y-127.25
X162.2Y-111.75
X162.25Y-69.75
X162.25Y-110.25
X162.3Y-64.0
X162.4Y-58.2
X162.5Y-52.75
X165.2Y-131.3
X166.0Y-80.0
X166.6Y-138.8
X167.0Y-52.75
X167.6Y-139.7
X169.0Y-96.0
X172.0Y-116.2
X172.0Y-119.9
X172.3Y-60.0
X172.5Y-112.25
X173.8Y-140.3
X174.9Y-140.9
X176.5Y-141.0
X178.0Y-96.0
X178.0Y-89.5
X179.25Y-88.0
X179.25Y-90.0
X179.75Y-86.75
X180.0Y-127.25
X180.25Y-91.0
X181.0Y-80.0
X181.0Y-86.0
X181.25Y-92.0
X181.75Y-93.0
X184.5Y-110.25
X184.5Y-127.25
X184.6Y-111.8
X184.6Y-121.8
X184.75Y-68.25
X184.75Y-69.75
X186.5Y-52.75
X186.75Y-82.5
X186.75Y-138.0
X188.25Y-36.0
X188.25Y-82.5
X188.5Y-127.25
X190.4Y-58.2
X190.4Y-64.0
X190.5Y-52.75
X190.5Y-69.75
X190.5Y-110.25
X190.5Y-111.75
X193.4Y-131.4
X194.0Y-80.0
X194.4Y-141.8
X195.0Y-52.75
X195.4Y-142.5
X197.0Y-96.0
X197.0Y-142.5
X200.0Y-117.75
X201.0Y-116.0
X201.5Y-112.5
X202.0Y-143.3
X202.6Y-71.5
X203.1Y-144.0
X204.75Y-144.0
X205.75Y-89.0
X206.0Y-96.0
X207.25Y-88.0
X207.25Y-90.0
X208.0Y-86.75
X208.0Y-127.25
X208.25Y-91.0
X208.75Y-92.0
X209.0Y-86.0
X209.0Y-80.0
X209.5Y-93.0
X212.25Y-110.25
X212.25Y-111.75
X212.5Y-127.25
X212.6Y-121.8
X212.75Y-68.25
X212.75Y-69.75
X214.5Y-52.75
X214.75Y-82.5
X214.75Y-138.0
X216.0Y-36.0
X216.25Y-82.5
X216.5Y-127.25
X218.25Y-110.25
X218.25Y-111.75
X218.4Y-58.2
X218.5Y-52.75
X218.75Y-69.75
X221.3Y-131.4
X222.0Y-80.0
X222.4Y-144.8
X223.0Y-52.75
X223.5Y-145.6
X225.0Y-96.0
X225.25Y-145.5
X229.0Y-116.25
X229.0Y-118.75
X229.0Y-120.9
X229.7Y-67.1
X229.75Y-112.25
X229.75Y-146.0
X231.0Y-146.75
X232.75Y-147.0
X234.0Y-84.0
X234.0Y-96.0
X236.0Y-127.25
X240.4Y-121.8
X240.5Y-68.25
X240.5Y-69.75
X240.5Y-111.75
X240.5Y-127.25
X242.5Y-52.75
X242.75Y-138.0
X244.25Y-36.0
X244.5Y-127.25
X246.2Y-110.2
X246.2Y-111.8
X246.4Y-58.2
X246.5Y-52.75
X247.1Y-131.4
X247.5Y-68.25
X248.25Y-147.25
X249.25Y-148.0
X251.0Y-52.75
X251.4Y-111.8
X253.0Y-84.0
X253.0Y-96.0
X46.025Y-105.275
X46.025Y-106.13
X46.025Y-106.98
X46.025Y-107.83
X46.025Y-108.68
X46.025Y-109.53
X46.025Y-110.38
X46.025Y-111.23
X47.35Y-105.275
X47.35Y-106.125
X47.35Y-106.975
X47.35Y-107.825
X47.35Y-108.675
X47.35Y-109.525
X47.35Y-110.375
X47.35Y-111.225
T3
X149.24Y-40.93
X149.24Y-43.47
X149.24Y-46.01
X149.24Y-48.55
X149.24Y-51.09
X149.24Y-53.63
X149.24Y-56.17
X149.24Y-58.71
X149.24Y-61.25
X149.24Y-63.79
X149.24Y-66.33
X149.24Y-68.87
X149.24Y-71.41
X149.24Y-73.95
X149.24Y-76.49
X149.24Y-79.03
X169.56Y-51.09
X169.56Y-53.63
X169.56Y-56.17
X169.56Y-58.71
X169.56Y-61.25
X169.56Y-63.79
X169.56Y-66.33
X169.56Y-68.87
X169.56Y-71.41
X169.56Y-73.95
X169.56Y-76.49
X169.56Y-79.03
X149.24Y-100.93
X149.24Y-103.47
X149.24Y-106.01
X149.24Y-108.55
X149.24Y-111.09
X149.24Y-113.63
X149.24Y-116.17
X149.24Y-118.71
X149.24Y-121.25
X149.24Y-123.79
X149.24Y-126.33
X149.24Y-128.87
X169.56Y-100.93
X169.56Y-103.47
X169.56Y-106.01
X169.56Y-108.55
X169.56Y-111.09
X169.56Y-113.63
X169.56Y-116.17
X169.56Y-118.71
X169.56Y-121.25
X169.56Y-123.79
X169.56Y-126.33
X169.56Y-128.87
X169.56Y-131.41
X169.56Y-133.95
X169.56Y-136.49
X169.56Y-139.03
X49.7Y-118.07
X49.7Y-138.39
X52.24Y-118.07
X52.24Y-138.39
X54.78Y-118.07
X54.78Y-138.39
X57.32Y-118.07
X57.32Y-138.39
X59.86Y-118.07
X59.86Y-138.39
X62.4Y-118.07
X62.4Y-138.39
X64.94Y-118.07
X64.94Y-138.39
X67.48Y-118.07
X67.48Y-138.39
X70.02Y-118.07
X70.02Y-138.39
X72.56Y-118.07
X72.56Y-138.39
X75.1Y-118.07
X75.1Y-138.39
X77.64Y-118.07
X77.64Y-138.39
X80.18Y-118.07
X82.72Y-118.07
X85.26Y-118.07
X87.8Y-118.07
X177.24Y-40.93
X177.24Y-43.47
X177.24Y-46.01
X177.24Y-48.55
X177.24Y-51.09
X177.24Y-53.63
X177.24Y-56.17
X177.24Y-58.71
X177.24Y-61.25
X177.24Y-63.79
X177.24Y-66.33
X177.24Y-68.87
X177.24Y-71.41
X177.24Y-73.95
X177.24Y-76.49
X177.24Y-79.03
X197.56Y-51.09
X197.56Y-53.63
X197.56Y-56.17
X197.56Y-58.71
X197.56Y-61.25
X197.56Y-63.79
X197.56Y-66.33
X197.56Y-68.87
X197.56Y-71.41
X197.56Y-73.95
X197.56Y-76.49
X197.56Y-79.03
X205.24Y-100.93
X205.24Y-103.47
X205.24Y-106.01
X205.24Y-108.55
X205.24Y-111.09
X205.24Y-113.63
X205.24Y-116.17
X205.24Y-118.71
X205.24Y-121.25
X205.24Y-123.79
X205.24Y-126.33
X205.24Y-128.87
X225.56Y-100.93
X225.56Y-103.47
X225.56Y-106.01
X225.56Y-108.55
X225.56Y-111.09
X225.56Y-113.63
X225.56Y-116.17
X225.56Y-118.71
X225.56Y-121.25
X225.56Y-123.79
X225.56Y-126.33
X225.56Y-128.87
X225.56Y-131.41
X225.56Y-133.95
X225.56Y-136.49
X225.56Y-139.03
X177.24Y-100.93
X177.24Y-103.47
X177.24Y-106.01
X177.24Y-108.55
X177.24Y-111.09
X177.24Y-113.63
X177.24Y-116.17
X177.24Y-118.71
X177.24Y-121.25
X177.24Y-123.79
X177.24Y-126.33
X177.24Y-128.87
X197.56Y-100.93
X197.56Y-103.47
X197.56Y-106.01
X197.56Y-108.55
X197.56Y-111.09
X197.56Y-113.63
X197.56Y-116.17
X197.56Y-118.71
X197.56Y-121.25
X197.56Y-123.79
X197.56Y-126.33
X197.56Y-128.87
X197.56Y-131.41
X197.56Y-133.95
X197.56Y-136.49
X197.56Y-139.03
X233.24Y-100.93
X233.24Y-103.47
X233.24Y-106.01
X233.24Y-108.55
X233.24Y-111.09
X233.24Y-113.63
X233.24Y-116.17
X233.24Y-118.71
X233.24Y-121.25
X233.24Y-123.79
X233.24Y-126.33
X233.24Y-128.87
X253.56Y-100.93
X253.56Y-103.47
X253.56Y-106.01
X253.56Y-108.55
X253.56Y-111.09
X253.56Y-113.63
X253.56Y-116.17
X253.56Y-118.71
X253.56Y-121.25
X253.56Y-123.79
X253.56Y-126.33
X253.56Y-128.87
X253.56Y-131.41
X253.56Y-133.95
X253.56Y-136.49
X253.56Y-139.03
X205.24Y-40.93
X205.24Y-43.47
X205.24Y-46.01
X205.24Y-48.55
X205.24Y-51.09
X205.24Y-53.63
X205.24Y-56.17
X205.24Y-58.71
X205.24Y-61.25
X205.24Y-63.79
X205.24Y-66.33
X205.24Y-68.87
X205.24Y-71.41
X205.24Y-73.95
X205.24Y-76.49
X205.24Y-79.03
X225.56Y-51.09
X225.56Y-53.63
X225.56Y-56.17
X225.56Y-58.71
X225.56Y-61.25
X225.56Y-63.79
X225.56Y-66.33
X225.56Y-68.87
X225.56Y-71.41
X225.56Y-73.95
X225.56Y-76.49
X225.56Y-79.03
X233.24Y-40.93
X233.24Y-43.47
X233.24Y-46.01
X233.24Y-48.55
X233.24Y-51.09
X233.24Y-53.63
X233.24Y-56.17
X233.24Y-58.71
X233.24Y-61.25
X233.24Y-63.79
X233.24Y-66.33
X233.24Y-68.87
X233.24Y-71.41
X233.24Y-73.95
X233.24Y-76.49
X233.24Y-79.03
X253.56Y-51.09
X253.56Y-53.63
X253.56Y-56.17
X253.56Y-58.71
X253.56Y-61.25
X253.56Y-63.79
X253.56Y-66.33
X253.56Y-68.87
X253.56Y-71.41
X253.56Y-73.95
X253.56Y-76.49
X253.56Y-79.03
T4
X73.0Y-46.0
X73.0Y-48.5
X73.0Y-50.5
X73.0Y-53.0
X48.5Y-72.5
X48.5Y-75.0
X48.5Y-77.0
X48.5Y-79.5
X73.0Y-72.5
X73.0Y-75.0
X73.0Y-77.0
X73.0Y-79.5
X48.5Y-46.0
X48.5Y-48.5
X48.5Y-50.5
X48.5Y-53.0
X125.0Y-46.0
X125.0Y-48.5
X125.0Y-50.5
X125.0Y-53.0
X125.0Y-72.5
X125.0Y-75.0
X125.0Y-77.0
X125.0Y-79.5
X100.5Y-72.5
X100.5Y-75.0
X100.5Y-77.0
X100.5Y-79.5
X100.5Y-46.0
X100.5Y-48.5
X100.5Y-50.5
X100.5Y-53.0
T5
X114.5Y-69.5
X114.5Y-72.04
X114.5Y-74.58
X114.5Y-77.12
X114.5Y-79.66
X114.5Y-82.2
X107.21Y-145.75
X109.75Y-145.75
X112.29Y-145.75
X139.0Y-43.0
X139.0Y-45.54
X139.0Y-48.08
X139.0Y-50.62
X139.0Y-53.16
X139.0Y-55.7
X65.5Y-43.0
X65.5Y-45.54
X65.5Y-48.08
X65.5Y-50.62
X65.5Y-53.16
X65.5Y-55.7
X114.5Y-43.0
X114.5Y-45.54
X114.5Y-48.08
X114.5Y-50.62
X114.5Y-53.16
X114.5Y-55.7
X90.0Y-43.0
X90.0Y-45.54
X90.0Y-48.08
X90.0Y-50.62
X90.0Y-53.16
X90.0Y-55.7
X90.0Y-69.5
X90.0Y-72.04
X90.0Y-74.58
X90.0Y-77.12
X90.0Y-79.66
X90.0Y-82.2
X139.0Y-69.5
X139.0Y-72.04
X139.0Y-74.58
X139.0Y-77.12
X139.0Y-79.66
X139.0Y-82.2
X65.5Y-69.5
X65.5Y-72.04
X65.5Y-74.58
X65.5Y-77.12
X65.5Y-79.66
X65.5Y-82.2
T6
X51.21Y-69.43
X51.21Y-82.57
X75.71Y-69.43
X75.71Y-82.57
X51.21Y-42.93
X51.21Y-56.07
X122.29Y-42.93
X122.29Y-56.07
X122.29Y-69.43
X122.29Y-82.57
X97.79Y-69.43
X97.79Y-82.57
X97.79Y-42.93
X97.79Y-56.07
X75.71Y-42.93
X75.71Y-56.07
T7
X255.0Y-35.0
X255.0Y-145.0
X44.9Y-34.98
X45.0Y-145.0
T2
G00X43.39Y-103.925
M15
G01X42.59Y-103.925
M16
G05
G00X43.39Y-112.575
M15
G01X42.59Y-112.575
M16
G05
G00X47.12Y-103.925
M15
G01X45.62Y-103.925
M16
G05
G00X47.12Y-112.575
M15
G01X45.62Y-112.575
M16
G05
T0
M30
